<?xml version="1.0" encoding="UTF-8"?>
<svg xmlns="http://www.w3.org/2000/svg" xmlns:xlink="http://www.w3.org/1999/xlink" width="60px" height="80px" viewBox="0 0 60 80" version="1.1">
<defs>
<linearGradient id="linear0" gradientUnits="userSpaceOnUse" x1="20.526922" y1="19.940434" x2="368.31158" y2="492.64606" gradientTransform="matrix(0.15625,0,0,0.15625,0,0)">
<stop offset="0" style="stop-color:rgb(0.392157%,90.196078%,100%);stop-opacity:1;"/>
<stop offset="1" style="stop-color:rgb(0%,1.568627%,50.196078%);stop-opacity:1;"/>
</linearGradient>
</defs>
<g id="surface1">
<path style=" stroke:none;fill-rule:nonzero;fill:url(#linear0);" d="M 25.328125 40.28125 C 24.109375 39.0625 22.128906 39.0625 20.910156 40.28125 L 13.410156 47.78125 C 12.1875 49 12.1875 50.984375 13.410156 52.203125 L 20.910156 59.703125 C 21.53125 60.328125 22.328125 60.625 23.125 60.625 C 23.921875 60.625 24.722656 60.320312 25.335938 59.710938 C 26.554688 58.492188 26.554688 56.507812 25.335938 55.289062 L 20.046875 50 L 25.335938 44.710938 C 26.421875 43.484375 26.421875 41.515625 25.328125 40.28125 Z M 57.078125 14.589844 L 45.417969 2.929688 C 43.53125 1.054688 40.984375 0 38.34375 0 L 10 0 C 4.476562 0 0 4.476562 0 10 L 0 70 C 0 75.523438 4.476562 80 10 80 L 50 80 C 55.5 80 60 75.5 60 70 L 60 21.65625 C 60 19.015625 58.953125 16.46875 57.078125 14.589844 Z M 52.5 70 C 52.5 71.378906 51.378906 72.5 50 72.5 L 10.003906 72.5 C 8.621094 72.5 7.503906 71.378906 7.503906 70 L 7.5 10.019531 C 7.5 8.640625 8.621094 7.519531 10 7.519531 L 35 7.519531 L 35 20 C 35 22.761719 37.238281 25 40 25 L 52.359375 25 L 52.359375 70 Z M 34.671875 40.28125 C 33.453125 41.5 33.453125 43.484375 34.671875 44.703125 L 39.953125 50 L 34.664062 55.289062 C 33.441406 56.507812 33.441406 58.492188 34.664062 59.710938 C 35.28125 60.328125 36.078125 60.625 36.875 60.625 C 37.671875 60.625 38.472656 60.320312 39.085938 59.710938 L 46.585938 52.210938 C 47.804688 50.992188 47.804688 49.007812 46.585938 47.789062 L 39.085938 40.289062 C 37.859375 39.0625 35.890625 39.0625 34.671875 40.28125 Z M 34.671875 40.28125 "/>
</g>
</svg>
