<?xml version="1.0" encoding="UTF-8"?>
<svg xmlns="http://www.w3.org/2000/svg" xmlns:xlink="http://www.w3.org/1999/xlink" width="px" height="80px" viewBox="0 0 60 80" version="1.1">
<g id="surface1">
<path style=" stroke:none;fill-rule:nonzero;fill:rgb(0%,0%,0%);fill-opacity:1;" d="M 25.328125 40.28125 C 24.109375 39.0625 22.128906 39.0625 20.910156 40.28125 L 13.410156 47.78125 C 12.1875 49 12.1875 50.984375 13.410156 52.203125 L 20.910156 59.703125 C 21.53125 60.328125 22.328125 60.625 23.125 60.625 C 23.921875 60.625 24.722656 60.320312 25.335938 59.710938 C 26.554688 58.492188 26.554688 56.507812 25.335938 55.289062 L 20.046875 50 L 25.335938 44.710938 C 26.421875 43.484375 26.421875 41.515625 25.328125 40.28125 Z M 57.078125 14.589844 L 45.417969 2.929688 C 43.53125 1.054688 40.984375 0 38.34375 0 L 10 0 C 4.476562 0 0 4.476562 0 10 L 0 70 C 0 75.523438 4.476562 80 10 80 L 50 80 C 55.5 80 60 75.5 60 70 L 60 21.65625 C 60 19.015625 58.953125 16.46875 57.078125 14.589844 Z M 52.5 70 C 52.5 71.378906 51.378906 72.5 50 72.5 L 10.003906 72.5 C 8.621094 72.5 7.503906 71.378906 7.503906 70 L 7.5 10.019531 C 7.5 8.640625 8.621094 7.519531 10 7.519531 L 35 7.519531 L 35 20 C 35 22.761719 37.238281 25 40 25 L 52.359375 25 L 52.359375 70 Z M 34.671875 40.28125 C 33.453125 41.5 33.453125 43.484375 34.671875 44.703125 L 39.953125 50 L 34.664062 55.289062 C 33.441406 56.507812 33.441406 58.492188 34.664062 59.710938 C 35.28125 60.328125 36.078125 60.625 36.875 60.625 C 37.671875 60.625 38.472656 60.320312 39.085938 59.710938 L 46.585938 52.210938 C 47.804688 50.992188 47.804688 49.007812 46.585938 47.789062 L 39.085938 40.289062 C 37.859375 39.0625 35.890625 39.0625 34.671875 40.28125 Z M 34.671875 40.28125 "/>
<path style="fill-rule:nonzero;fill:rgb(100%,100%,100%);fill-opacity:1;stroke-width:0.625191;stroke-linecap:butt;stroke-linejoin:miter;stroke:rgb(100%,100%,100%);stroke-opacity:1;stroke-miterlimit:4;" d="M 61 511.625 C 38.05 509.95 18.725 497.725 8.05 478.125 C 4.95 472.375 2.225 464.5 1.225 458.325 C 0.75 455.375 0.525 399.4 0.425 256.3 C 0.325 91.575 0.425 57.625 1.1 53.95 C 6.05 26.575 26.575 6.05 53.95 1.1 C 57.55 0.45 76.125 0.3 155.125 0.3 C 246.65 0.3 252.175 0.35 256.875 1.375 C 266.075 3.35 273.4 6.325 280.925 11.2 C 283.625 12.95 297.125 26.025 326.85 55.65 C 363.65 92.325 369.475 98.375 372.8 103.325 C 376.925 109.5 379.925 116.25 381.975 123.875 L 383.275 128.725 L 383.275 457.75 L 381.975 462.6 C 376.175 484.35 360.575 501.5 340.5 508.2 C 329.425 511.9 340.375 511.625 195.6 511.725 C 123.025 511.775 62.45 511.725 61 511.625 Z M 326.2 463.225 C 329.55 461.7 333.45 457.75 334.675 454.65 C 335.725 451.975 335.75 447.125 335.6 305.725 L 335.45 159.55 L 292.2 159.4 L 248.95 159.225 L 245.45 157.825 C 235.9 154 228.8 146.625 225.65 137.275 C 224.375 133.475 224.375 132.9 224.175 90.75 L 223.975 48.1 L 60.125 48.1 L 57.175 49.475 C 53.925 51 50.25 54.7 48.775 57.975 C 47.875 59.95 47.8 75.025 47.8 255.125 C 47.8 362.375 48 451.075 48.25 452.25 C 49.325 457.225 54.3 462.225 59.7 463.675 C 61.9 464.275 88.875 464.4 193.25 464.3 C 314.125 464.2 324.2 464.125 326.2 463.225 Z M 326.2 463.225 " transform="matrix(0.15625,0,0,0.15625,0,0)"/>
<path style="fill-rule:nonzero;fill:rgb(100%,100%,100%);fill-opacity:1;stroke-width:0.625191;stroke-linecap:butt;stroke-linejoin:miter;stroke:rgb(100%,100%,96.078431%);stroke-opacity:1;stroke-miterlimit:4;" d="M 142.425 386.875 C 141.25 386.45 139.125 385.4 137.725 384.575 C 136.325 383.75 123.55 371.35 109.325 357.075 C 79.875 327.475 80.675 328.5 80.65 319.925 C 80.625 311.325 80.3 311.725 110.425 281.65 C 140.075 252.05 139.55 252.45 148.075 252.5 C 156 252.55 161.875 256.35 165.15 263.475 C 166.55 266.575 166.825 267.925 166.825 272.15 C 166.875 280.7 166.2 281.625 145.475 302.325 L 127.875 319.9 L 146 338.1 C 166.975 359.125 167.45 359.775 167.45 368.025 C 167.45 371.875 167.15 373.3 165.9 376.025 C 162.675 382.85 156.325 387.1 148.7 387.475 C 146.15 387.6 143.75 387.375 142.425 386.875 Z M 142.425 386.875 " transform="matrix(0.15625,0,0,0.15625,0,0)"/>
<path style="fill-rule:nonzero;fill:rgb(100%,100%,100%);fill-opacity:1;stroke-width:0.625191;stroke-linecap:butt;stroke-linejoin:miter;stroke:rgb(100%,100%,100%);stroke-opacity:1;stroke-miterlimit:4;" d="M 230.775 387.075 C 227.375 386.025 222.575 382.65 220.45 379.8 C 217.45 375.85 216.2 371.55 216.55 366.55 C 217.05 359.575 217.725 358.7 237.625 338.675 C 247.575 328.675 255.7 320.225 255.7 319.925 C 255.7 319.625 247.575 311.2 237.625 301.175 C 216.85 280.275 216.7 280.1 216.7 272.125 C 216.7 267.95 216.95 266.6 218.25 263.825 C 221.575 256.725 228.05 252.55 235.775 252.5 C 244.075 252.45 242.775 251.425 273.175 281.725 C 303.975 312.425 303.45 311.75 303.45 319.925 C 303.475 328.525 303.95 327.95 274 357.875 C 250.9 380.975 247.375 384.275 244.3 385.675 C 240.5 387.425 234 388.075 230.775 387.075 Z M 230.775 387.075 " transform="matrix(0.15625,0,0,0.15625,0,0)"/>
</g>
</svg>
